<mxfile host="app.diagrams.net" modified="2023-12-16T23:02:55.572Z" agent="Mozilla/5.0 (X11; Linux x86_64; rv:120.0) Gecko/20100101 Firefox/120.0" etag="BJUiASJhg86I6ZFdvKgO" version="22.1.11" type="device">
  <diagram name="Page-1" id="NVInUc-iUCmnAT6USgA1">
    <mxGraphModel dx="956" dy="531" grid="1" gridSize="10" guides="1" tooltips="1" connect="1" arrows="1" fold="1" page="1" pageScale="1" pageWidth="827" pageHeight="1169" math="0" shadow="0">
      <root>
        <mxCell id="0" />
        <mxCell id="1" parent="0" />
        <mxCell id="rAL_g6ywDIMlJPgY3sV3-4" style="edgeStyle=orthogonalEdgeStyle;rounded=0;orthogonalLoop=1;jettySize=auto;html=1;entryX=0.5;entryY=0;entryDx=0;entryDy=0;" parent="1" source="rAL_g6ywDIMlJPgY3sV3-1" target="rAL_g6ywDIMlJPgY3sV3-2" edge="1">
          <mxGeometry relative="1" as="geometry" />
        </mxCell>
        <mxCell id="rAL_g6ywDIMlJPgY3sV3-1" value="&lt;font style=&quot;font-size: 15px;&quot; face=&quot;Roboto Condensed&quot; data-font-src=&quot;https://fonts.googleapis.com/css?family=Roboto+Condensed&quot;&gt;STOP instruction&lt;br&gt;is reached!&lt;/font&gt;" style="rounded=1;whiteSpace=wrap;html=1;" parent="1" vertex="1">
          <mxGeometry x="60" y="30" width="150" height="60" as="geometry" />
        </mxCell>
        <mxCell id="rAL_g6ywDIMlJPgY3sV3-6" style="edgeStyle=orthogonalEdgeStyle;rounded=0;orthogonalLoop=1;jettySize=auto;html=1;entryX=0.5;entryY=0;entryDx=0;entryDy=0;" parent="1" source="rAL_g6ywDIMlJPgY3sV3-2" target="rAL_g6ywDIMlJPgY3sV3-5" edge="1">
          <mxGeometry relative="1" as="geometry" />
        </mxCell>
        <mxCell id="rAL_g6ywDIMlJPgY3sV3-16" style="edgeStyle=orthogonalEdgeStyle;rounded=0;orthogonalLoop=1;jettySize=auto;html=1;entryX=0;entryY=0.5;entryDx=0;entryDy=0;" parent="1" source="rAL_g6ywDIMlJPgY3sV3-2" target="rAL_g6ywDIMlJPgY3sV3-11" edge="1">
          <mxGeometry relative="1" as="geometry" />
        </mxCell>
        <mxCell id="rAL_g6ywDIMlJPgY3sV3-2" value="&lt;div style=&quot;font-size: 15px;&quot;&gt;&lt;font style=&quot;font-size: 15px;&quot; data-font-src=&quot;https://fonts.googleapis.com/css?family=Roboto+Condensed&quot; face=&quot;Roboto Condensed&quot;&gt;Is a button&lt;/font&gt;&lt;/div&gt;&lt;div style=&quot;font-size: 15px;&quot;&gt;&lt;font style=&quot;font-size: 15px;&quot; data-font-src=&quot;https://fonts.googleapis.com/css?family=Roboto+Condensed&quot; face=&quot;Roboto Condensed&quot;&gt;being held &lt;/font&gt;&lt;font style=&quot;font-size: 15px;&quot; data-font-src=&quot;https://fonts.googleapis.com/css?family=Roboto+Condensed&quot; face=&quot;Roboto Condensed&quot;&gt;and selected&lt;/font&gt;&lt;/div&gt;&lt;div style=&quot;font-size: 15px;&quot;&gt;&lt;font style=&quot;font-size: 15px;&quot; data-font-src=&quot;https://fonts.googleapis.com/css?family=Roboto+Condensed&quot; face=&quot;Roboto Condensed&quot;&gt;in JOYP?&lt;/font&gt;&lt;/div&gt;" style="rhombus;whiteSpace=wrap;html=1;" parent="1" vertex="1">
          <mxGeometry x="50" y="170" width="170" height="120" as="geometry" />
        </mxCell>
        <mxCell id="rAL_g6ywDIMlJPgY3sV3-15" style="edgeStyle=orthogonalEdgeStyle;rounded=0;orthogonalLoop=1;jettySize=auto;html=1;entryX=0.5;entryY=0;entryDx=0;entryDy=0;" parent="1" source="rAL_g6ywDIMlJPgY3sV3-5" target="rAL_g6ywDIMlJPgY3sV3-8" edge="1">
          <mxGeometry relative="1" as="geometry" />
        </mxCell>
        <mxCell id="rAL_g6ywDIMlJPgY3sV3-17" style="edgeStyle=orthogonalEdgeStyle;rounded=0;orthogonalLoop=1;jettySize=auto;html=1;entryX=0;entryY=0.5;entryDx=0;entryDy=0;" parent="1" source="rAL_g6ywDIMlJPgY3sV3-5" target="rAL_g6ywDIMlJPgY3sV3-13" edge="1">
          <mxGeometry relative="1" as="geometry" />
        </mxCell>
        <mxCell id="rAL_g6ywDIMlJPgY3sV3-5" value="&lt;font style=&quot;font-size: 15px;&quot; data-font-src=&quot;https://fonts.googleapis.com/css?family=Roboto+Condensed&quot; face=&quot;Roboto Condensed&quot;&gt;Was a speed &lt;br&gt;switch requested &lt;br&gt;via KEY1?&lt;/font&gt;" style="rhombus;whiteSpace=wrap;html=1;" parent="1" vertex="1">
          <mxGeometry x="50" y="340" width="170" height="120" as="geometry" />
        </mxCell>
        <mxCell id="00wKbQjIcOpyedsLsLKM-16" style="edgeStyle=orthogonalEdgeStyle;rounded=0;orthogonalLoop=1;jettySize=auto;html=1;entryX=0;entryY=0.5;entryDx=0;entryDy=0;" parent="1" source="rAL_g6ywDIMlJPgY3sV3-8" target="00wKbQjIcOpyedsLsLKM-14" edge="1">
          <mxGeometry relative="1" as="geometry" />
        </mxCell>
        <mxCell id="00wKbQjIcOpyedsLsLKM-18" style="edgeStyle=orthogonalEdgeStyle;rounded=0;orthogonalLoop=1;jettySize=auto;html=1;entryX=0.5;entryY=0;entryDx=0;entryDy=0;" parent="1" source="rAL_g6ywDIMlJPgY3sV3-8" target="rAL_g6ywDIMlJPgY3sV3-9" edge="1">
          <mxGeometry relative="1" as="geometry" />
        </mxCell>
        <mxCell id="rAL_g6ywDIMlJPgY3sV3-8" value="&lt;div style=&quot;font-size: 15px;&quot;&gt;&lt;font data-font-src=&quot;https://fonts.googleapis.com/css?family=Roboto+Condensed&quot; face=&quot;Roboto Condensed&quot; style=&quot;font-size: 15px;&quot;&gt;Is an interrupt&lt;/font&gt;&lt;/div&gt;&lt;div style=&quot;font-size: 15px;&quot;&gt;&lt;font data-font-src=&quot;https://fonts.googleapis.com/css?family=Roboto+Condensed&quot; face=&quot;Roboto Condensed&quot; style=&quot;font-size: 15px;&quot;&gt;pending&lt;/font&gt;&lt;font data-font-src=&quot;https://fonts.googleapis.com/css?family=Roboto+Condensed&quot; face=&quot;Roboto Condensed&quot; style=&quot;font-size: 15px;&quot;&gt;?&lt;/font&gt;&lt;/div&gt;&lt;div style=&quot;font-size: 15px;&quot;&gt;&lt;font face=&quot;nc90kHCLo0Ip_ot2017Y&quot; style=&quot;font-size: 15px;&quot;&gt;&lt;font style=&quot;font-size: 15px;&quot;&gt;&amp;nbsp;&lt;/font&gt;&lt;/font&gt;&lt;font data-font-src=&quot;https://fonts.googleapis.com/css?family=Roboto+Condensed&quot; face=&quot;Roboto Condensed&quot; style=&quot;font-size: 15px;&quot;&gt;&lt;font style=&quot;font-size: 15px;&quot;&gt;(IE &amp;amp; IF â‰  0)&lt;/font&gt;&lt;/font&gt;&lt;font face=&quot;5Bk1DKhhKoJxEGmaAxK1&quot; style=&quot;font-size: 15px;&quot;&gt;&lt;br&gt;&lt;/font&gt;&lt;/div&gt;" style="rhombus;whiteSpace=wrap;html=1;" parent="1" vertex="1">
          <mxGeometry x="50" y="630" width="170" height="120" as="geometry" />
        </mxCell>
        <mxCell id="00wKbQjIcOpyedsLsLKM-21" style="edgeStyle=orthogonalEdgeStyle;rounded=0;orthogonalLoop=1;jettySize=auto;html=1;entryX=0;entryY=0.5;entryDx=0;entryDy=0;" parent="1" source="rAL_g6ywDIMlJPgY3sV3-9" target="00wKbQjIcOpyedsLsLKM-19" edge="1">
          <mxGeometry relative="1" as="geometry" />
        </mxCell>
        <mxCell id="00wKbQjIcOpyedsLsLKM-26" style="edgeStyle=orthogonalEdgeStyle;rounded=0;orthogonalLoop=1;jettySize=auto;html=1;entryX=0.5;entryY=0;entryDx=0;entryDy=0;" parent="1" source="rAL_g6ywDIMlJPgY3sV3-9" target="00wKbQjIcOpyedsLsLKM-25" edge="1">
          <mxGeometry relative="1" as="geometry" />
        </mxCell>
        <mxCell id="rAL_g6ywDIMlJPgY3sV3-9" value="&lt;div style=&quot;font-size: 15px;&quot;&gt;&lt;font data-font-src=&quot;https://fonts.googleapis.com/css?family=Roboto+Condensed&quot; face=&quot;Roboto Condensed&quot; style=&quot;font-size: 15px;&quot;&gt;Is IME enabled?&lt;br&gt;&lt;/font&gt;&lt;/div&gt;" style="rhombus;whiteSpace=wrap;html=1;" parent="1" vertex="1">
          <mxGeometry x="50" y="800" width="170" height="120" as="geometry" />
        </mxCell>
        <mxCell id="rAL_g6ywDIMlJPgY3sV3-10" value="&lt;div style=&quot;font-size: 15px;&quot;&gt;&lt;font style=&quot;font-size: 15px;&quot; face=&quot;Roboto Condensed&quot;&gt;STOP is a 2-byte opcode,&lt;/font&gt;&lt;/div&gt;&lt;div style=&quot;font-size: 15px;&quot;&gt;&lt;font style=&quot;font-size: 15px;&quot; face=&quot;Roboto Condensed&quot;&gt;HALT mode is entered,&lt;/font&gt;&lt;/div&gt;&lt;div style=&quot;font-size: 15px;&quot;&gt;&lt;font style=&quot;font-size: 15px;&quot; face=&quot;Roboto Condensed&quot;&gt;DIV is not reset&lt;br&gt;&lt;/font&gt;&lt;/div&gt;" style="rounded=1;whiteSpace=wrap;html=1;" parent="1" vertex="1">
          <mxGeometry x="540" y="190" width="180" height="80" as="geometry" />
        </mxCell>
        <mxCell id="00wKbQjIcOpyedsLsLKM-3" style="edgeStyle=orthogonalEdgeStyle;rounded=0;orthogonalLoop=1;jettySize=auto;html=1;entryX=0.5;entryY=1;entryDx=0;entryDy=0;" parent="1" source="rAL_g6ywDIMlJPgY3sV3-11" target="rAL_g6ywDIMlJPgY3sV3-12" edge="1">
          <mxGeometry relative="1" as="geometry" />
        </mxCell>
        <mxCell id="00wKbQjIcOpyedsLsLKM-5" style="edgeStyle=orthogonalEdgeStyle;rounded=0;orthogonalLoop=1;jettySize=auto;html=1;entryX=0;entryY=0.5;entryDx=0;entryDy=0;" parent="1" source="rAL_g6ywDIMlJPgY3sV3-11" target="rAL_g6ywDIMlJPgY3sV3-10" edge="1">
          <mxGeometry relative="1" as="geometry" />
        </mxCell>
        <mxCell id="rAL_g6ywDIMlJPgY3sV3-11" value="&lt;div style=&quot;font-size: 15px;&quot;&gt;&lt;font style=&quot;font-size: 15px;&quot; data-font-src=&quot;https://fonts.googleapis.com/css?family=Roboto+Condensed&quot; face=&quot;Roboto Condensed&quot;&gt;Is an interrupt&lt;/font&gt;&lt;/div&gt;&lt;div style=&quot;font-size: 15px;&quot;&gt;&lt;font style=&quot;font-size: 15px;&quot; data-font-src=&quot;https://fonts.googleapis.com/css?family=Roboto+Condensed&quot; face=&quot;Roboto Condensed&quot;&gt;pending&lt;/font&gt;&lt;font style=&quot;font-size: 15px;&quot; data-font-src=&quot;https://fonts.googleapis.com/css?family=Roboto+Condensed&quot; face=&quot;Roboto Condensed&quot;&gt;?&lt;/font&gt;&lt;/div&gt;&lt;div style=&quot;font-size: 15px;&quot;&gt;&lt;font style=&quot;font-size: 15px;&quot; face=&quot;nc90kHCLo0Ip_ot2017Y&quot;&gt;&lt;font style=&quot;font-size: 15px;&quot;&gt;&amp;nbsp;&lt;/font&gt;&lt;/font&gt;&lt;font style=&quot;font-size: 15px;&quot; data-font-src=&quot;https://fonts.googleapis.com/css?family=Roboto+Condensed&quot; face=&quot;Roboto Condensed&quot;&gt;&lt;font style=&quot;font-size: 15px;&quot;&gt;(IE &amp;amp; IF â‰  0)&lt;/font&gt;&lt;/font&gt;&lt;font style=&quot;font-size: 15px;&quot; face=&quot;5Bk1DKhhKoJxEGmaAxK1&quot;&gt;&lt;br&gt;&lt;/font&gt;&lt;/div&gt;" style="rhombus;whiteSpace=wrap;html=1;" parent="1" vertex="1">
          <mxGeometry x="290" y="170" width="170" height="120" as="geometry" />
        </mxCell>
        <mxCell id="rAL_g6ywDIMlJPgY3sV3-12" value="&lt;div style=&quot;font-size: 15px;&quot;&gt;&lt;font style=&quot;font-size: 15px;&quot; face=&quot;Roboto Condensed&quot; data-font-src=&quot;https://fonts.googleapis.com/css?family=Roboto+Condensed&quot;&gt;STOP is a 1-byte opcode,&lt;/font&gt;&lt;/div&gt;&lt;div style=&quot;font-size: 15px;&quot;&gt;&lt;font style=&quot;font-size: 15px;&quot; face=&quot;Roboto Condensed&quot; data-font-src=&quot;https://fonts.googleapis.com/css?family=Roboto+Condensed&quot;&gt;mode doesn&#39;t change,&lt;/font&gt;&lt;/div&gt;&lt;div style=&quot;font-size: 15px;&quot;&gt;&lt;font style=&quot;font-size: 15px;&quot; face=&quot;Roboto Condensed&quot; data-font-src=&quot;https://fonts.googleapis.com/css?family=Roboto+Condensed&quot;&gt;DIV doesn&#39;t reset&lt;/font&gt;&lt;font style=&quot;font-size: 15px;&quot; face=&quot;t9cLJoZ0CTWn2FGVQSoB&quot;&gt;&lt;br&gt;&lt;/font&gt;&lt;/div&gt;" style="rounded=1;whiteSpace=wrap;html=1;" parent="1" vertex="1">
          <mxGeometry x="292.5" y="20" width="165" height="80" as="geometry" />
        </mxCell>
        <mxCell id="00wKbQjIcOpyedsLsLKM-7" style="edgeStyle=orthogonalEdgeStyle;rounded=0;orthogonalLoop=1;jettySize=auto;html=1;entryX=0;entryY=0.5;entryDx=0;entryDy=0;" parent="1" source="rAL_g6ywDIMlJPgY3sV3-13" target="00wKbQjIcOpyedsLsLKM-6" edge="1">
          <mxGeometry relative="1" as="geometry" />
        </mxCell>
        <mxCell id="00wKbQjIcOpyedsLsLKM-12" style="edgeStyle=orthogonalEdgeStyle;rounded=0;orthogonalLoop=1;jettySize=auto;html=1;entryX=0.5;entryY=0;entryDx=0;entryDy=0;" parent="1" source="rAL_g6ywDIMlJPgY3sV3-13" target="00wKbQjIcOpyedsLsLKM-11" edge="1">
          <mxGeometry relative="1" as="geometry" />
        </mxCell>
        <mxCell id="rAL_g6ywDIMlJPgY3sV3-13" value="&lt;div style=&quot;font-size: 15px;&quot;&gt;&lt;font data-font-src=&quot;https://fonts.googleapis.com/css?family=Roboto+Condensed&quot; face=&quot;Roboto Condensed&quot; style=&quot;font-size: 15px;&quot;&gt;Is an interrupt&lt;/font&gt;&lt;/div&gt;&lt;div style=&quot;font-size: 15px;&quot;&gt;&lt;font data-font-src=&quot;https://fonts.googleapis.com/css?family=Roboto+Condensed&quot; face=&quot;Roboto Condensed&quot; style=&quot;font-size: 15px;&quot;&gt;pending&lt;/font&gt;&lt;font data-font-src=&quot;https://fonts.googleapis.com/css?family=Roboto+Condensed&quot; face=&quot;Roboto Condensed&quot; style=&quot;font-size: 15px;&quot;&gt;?&lt;/font&gt;&lt;/div&gt;&lt;div style=&quot;font-size: 15px;&quot;&gt;&lt;font face=&quot;nc90kHCLo0Ip_ot2017Y&quot; style=&quot;font-size: 15px;&quot;&gt;&lt;font style=&quot;font-size: 15px;&quot;&gt;&amp;nbsp;&lt;/font&gt;&lt;/font&gt;&lt;font data-font-src=&quot;https://fonts.googleapis.com/css?family=Roboto+Condensed&quot; face=&quot;Roboto Condensed&quot; style=&quot;font-size: 15px;&quot;&gt;&lt;font style=&quot;font-size: 15px;&quot;&gt;(IE &amp;amp; IF â‰  0)&lt;/font&gt;&lt;/font&gt;&lt;font face=&quot;5Bk1DKhhKoJxEGmaAxK1&quot; style=&quot;font-size: 15px;&quot;&gt;&lt;br&gt;&lt;/font&gt;&lt;/div&gt;" style="rhombus;whiteSpace=wrap;html=1;" parent="1" vertex="1">
          <mxGeometry x="290" y="340" width="170" height="120" as="geometry" />
        </mxCell>
        <mxCell id="00wKbQjIcOpyedsLsLKM-6" value="&lt;div style=&quot;font-size: 15px;&quot;&gt;&lt;font style=&quot;font-size: 15px;&quot; face=&quot;Roboto Condensed&quot;&gt;STOP is a 2-byte opcode,&lt;/font&gt;&lt;/div&gt;&lt;div style=&quot;font-size: 15px;&quot;&gt;&lt;font style=&quot;font-size: 15px;&quot; face=&quot;Roboto Condensed&quot;&gt;STOP mode is entered,&lt;/font&gt;&lt;/div&gt;&lt;div style=&quot;font-size: 15px;&quot;&gt;&lt;font style=&quot;font-size: 15px;&quot; face=&quot;Roboto Condensed&quot;&gt;DIV is reset&lt;br&gt;&lt;/font&gt;&lt;/div&gt;" style="rounded=1;whiteSpace=wrap;html=1;" parent="1" vertex="1">
          <mxGeometry x="540" y="360" width="180" height="80" as="geometry" />
        </mxCell>
        <mxCell id="00wKbQjIcOpyedsLsLKM-11" value="&lt;div style=&quot;font-size: 15px;&quot;&gt;&lt;font style=&quot;font-size: 15px;&quot; face=&quot;Roboto Condensed&quot;&gt;STOP is a 1-byte opcode,&lt;/font&gt;&lt;/div&gt;&lt;div style=&quot;font-size: 15px;&quot;&gt;&lt;font style=&quot;font-size: 15px;&quot; face=&quot;Roboto Condensed&quot;&gt;STOP mode is entered,&lt;/font&gt;&lt;/div&gt;&lt;div style=&quot;font-size: 15px;&quot;&gt;&lt;font style=&quot;font-size: 15px;&quot; face=&quot;Roboto Condensed&quot;&gt;DIV is reset&lt;br&gt;&lt;/font&gt;&lt;/div&gt;" style="rounded=1;whiteSpace=wrap;html=1;" parent="1" vertex="1">
          <mxGeometry x="285" y="525" width="180" height="80" as="geometry" />
        </mxCell>
        <mxCell id="00wKbQjIcOpyedsLsLKM-24" style="edgeStyle=orthogonalEdgeStyle;rounded=0;orthogonalLoop=1;jettySize=auto;html=1;entryX=0;entryY=0.5;entryDx=0;entryDy=0;" parent="1" source="00wKbQjIcOpyedsLsLKM-14" target="00wKbQjIcOpyedsLsLKM-23" edge="1">
          <mxGeometry relative="1" as="geometry" />
        </mxCell>
        <mxCell id="00wKbQjIcOpyedsLsLKM-14" value="&lt;div style=&quot;font-size: 15px;&quot;&gt;&lt;font style=&quot;font-size: 15px;&quot; face=&quot;Roboto Condensed&quot;&gt;STOP is a 2-byte opcode,&lt;/font&gt;&lt;/div&gt;&lt;div style=&quot;font-size: 15px;&quot;&gt;&lt;font style=&quot;font-size: 15px;&quot; face=&quot;Roboto Condensed&quot;&gt;HALT mode is entered,&lt;/font&gt;&lt;/div&gt;&lt;div style=&quot;font-size: 15px;&quot;&gt;&lt;font style=&quot;font-size: 15px;&quot; face=&quot;Roboto Condensed&quot;&gt;DIV is reset,&lt;br&gt;CPU speed changes&lt;br&gt;&lt;/font&gt;&lt;/div&gt;" style="rounded=1;whiteSpace=wrap;html=1;" parent="1" vertex="1">
          <mxGeometry x="277.5" y="640" width="195" height="100" as="geometry" />
        </mxCell>
        <mxCell id="00wKbQjIcOpyedsLsLKM-19" value="&lt;font data-font-src=&quot;https://fonts.googleapis.com/css?family=Roboto+Condensed&quot; face=&quot;Roboto Condensed&quot; style=&quot;font-size: 15px;&quot;&gt;The CPU glitches non-deterministically, oops!&lt;/font&gt;" style="rounded=1;whiteSpace=wrap;html=1;" parent="1" vertex="1">
          <mxGeometry x="285" y="820" width="180" height="80" as="geometry" />
        </mxCell>
        <mxCell id="00wKbQjIcOpyedsLsLKM-23" value="&lt;div style=&quot;font-size: 15px;&quot;&gt;&lt;font style=&quot;font-size: 15px;&quot; face=&quot;Roboto Condensed&quot;&gt;Unless an interrupt occurs&lt;/font&gt;&lt;/div&gt;&lt;div style=&quot;font-size: 15px;&quot;&gt;&lt;font style=&quot;font-size: 15px;&quot; face=&quot;Roboto Condensed&quot;&gt;before then, HALT mode will&lt;/font&gt;&lt;/div&gt;&lt;div style=&quot;font-size: 15px;&quot;&gt;&lt;font style=&quot;font-size: 15px;&quot; face=&quot;Roboto Condensed&quot;&gt;exit automatically after about 0x20000 T-cycles&lt;br&gt;&lt;/font&gt;&lt;/div&gt;&lt;font size=&quot;1&quot; face=&quot;Roboto Condensed&quot;&gt;&lt;/font&gt;" style="rounded=1;whiteSpace=wrap;html=1;" parent="1" vertex="1">
          <mxGeometry x="530" y="650" width="200" height="80" as="geometry" />
        </mxCell>
        <mxCell id="00wKbQjIcOpyedsLsLKM-25" value="&lt;div style=&quot;font-size: 15px;&quot;&gt;&lt;font style=&quot;font-size: 15px;&quot; face=&quot;Roboto Condensed&quot;&gt;STOP is a 1-byte opcode,&lt;/font&gt;&lt;/div&gt;&lt;font style=&quot;font-size: 15px;&quot; face=&quot;Roboto Condensed&quot;&gt;mode doesn&#39;t change,&lt;br&gt;DIV is reset&lt;br&gt;CPU speed changes&lt;br&gt;&lt;/font&gt;" style="rounded=1;whiteSpace=wrap;html=1;" parent="1" vertex="1">
          <mxGeometry x="45" y="960" width="180" height="90" as="geometry" />
        </mxCell>
        <mxCell id="8hz7BEHyrLFVVqhSPrzq-6" value="&lt;font style=&quot;font-size: 15px;&quot; data-font-src=&quot;https://fonts.googleapis.com/css?family=Roboto+Condensed&quot; face=&quot;Roboto Condensed&quot;&gt;Yes&lt;/font&gt;" style="text;html=1;strokeColor=none;fillColor=none;align=center;verticalAlign=middle;whiteSpace=wrap;rounded=0;fontSize=16;" vertex="1" parent="1">
          <mxGeometry x="378" y="120" width="24" height="30" as="geometry" />
        </mxCell>
        <mxCell id="8hz7BEHyrLFVVqhSPrzq-7" value="&lt;font style=&quot;font-size: 15px;&quot; data-font-src=&quot;https://fonts.googleapis.com/css?family=Roboto+Condensed&quot; face=&quot;Roboto Condensed&quot;&gt;Yes&lt;/font&gt;" style="text;html=1;strokeColor=none;fillColor=none;align=center;verticalAlign=middle;whiteSpace=wrap;rounded=0;fontSize=16;" vertex="1" parent="1">
          <mxGeometry x="240" y="210" width="24" height="20" as="geometry" />
        </mxCell>
        <mxCell id="8hz7BEHyrLFVVqhSPrzq-8" value="&lt;font style=&quot;font-size: 15px;&quot; data-font-src=&quot;https://fonts.googleapis.com/css?family=Roboto+Condensed&quot; face=&quot;Roboto Condensed&quot;&gt;Yes&lt;/font&gt;" style="text;html=1;strokeColor=none;fillColor=none;align=center;verticalAlign=middle;whiteSpace=wrap;rounded=0;fontSize=16;" vertex="1" parent="1">
          <mxGeometry x="138" y="525" width="24" height="20" as="geometry" />
        </mxCell>
        <mxCell id="8hz7BEHyrLFVVqhSPrzq-10" value="&lt;font style=&quot;font-size: 15px;&quot; data-font-src=&quot;https://fonts.googleapis.com/css?family=Roboto+Condensed&quot; face=&quot;Roboto Condensed&quot;&gt;Yes&lt;/font&gt;" style="text;html=1;strokeColor=none;fillColor=none;align=center;verticalAlign=middle;whiteSpace=wrap;rounded=0;fontSize=16;" vertex="1" parent="1">
          <mxGeometry x="138" y="760" width="24" height="20" as="geometry" />
        </mxCell>
        <mxCell id="8hz7BEHyrLFVVqhSPrzq-11" value="&lt;font face=&quot;Roboto Condensed&quot;&gt;No&lt;/font&gt;" style="text;html=1;strokeColor=none;fillColor=none;align=center;verticalAlign=middle;whiteSpace=wrap;rounded=0;fontSize=16;" vertex="1" parent="1">
          <mxGeometry x="480" y="204" width="24" height="30" as="geometry" />
        </mxCell>
        <mxCell id="8hz7BEHyrLFVVqhSPrzq-12" value="&lt;font face=&quot;Roboto Condensed&quot;&gt;No&lt;/font&gt;" style="text;html=1;strokeColor=none;fillColor=none;align=center;verticalAlign=middle;whiteSpace=wrap;rounded=0;fontSize=16;" vertex="1" parent="1">
          <mxGeometry x="480" y="374" width="24" height="30" as="geometry" />
        </mxCell>
        <mxCell id="8hz7BEHyrLFVVqhSPrzq-13" value="&lt;font face=&quot;Roboto Condensed&quot;&gt;No&lt;/font&gt;" style="text;html=1;strokeColor=none;fillColor=none;align=center;verticalAlign=middle;whiteSpace=wrap;rounded=0;fontSize=16;" vertex="1" parent="1">
          <mxGeometry x="240" y="373" width="24" height="30" as="geometry" />
        </mxCell>
        <mxCell id="8hz7BEHyrLFVVqhSPrzq-14" value="&lt;font face=&quot;Roboto Condensed&quot;&gt;No&lt;/font&gt;" style="text;html=1;strokeColor=none;fillColor=none;align=center;verticalAlign=middle;whiteSpace=wrap;rounded=0;fontSize=16;" vertex="1" parent="1">
          <mxGeometry x="134" y="297" width="24" height="30" as="geometry" />
        </mxCell>
        <mxCell id="8hz7BEHyrLFVVqhSPrzq-15" value="&lt;font style=&quot;font-size: 15px;&quot; data-font-src=&quot;https://fonts.googleapis.com/css?family=Roboto+Condensed&quot; face=&quot;Roboto Condensed&quot;&gt;Yes&lt;/font&gt;" style="text;html=1;strokeColor=none;fillColor=none;align=center;verticalAlign=middle;whiteSpace=wrap;rounded=0;fontSize=16;" vertex="1" parent="1">
          <mxGeometry x="378" y="480" width="24" height="20" as="geometry" />
        </mxCell>
        <mxCell id="8hz7BEHyrLFVVqhSPrzq-16" value="&lt;font face=&quot;Roboto Condensed&quot;&gt;No&lt;/font&gt;" style="text;html=1;strokeColor=none;fillColor=none;align=center;verticalAlign=middle;whiteSpace=wrap;rounded=0;fontSize=16;" vertex="1" parent="1">
          <mxGeometry x="230" y="663" width="24" height="30" as="geometry" />
        </mxCell>
        <mxCell id="8hz7BEHyrLFVVqhSPrzq-17" value="&lt;font face=&quot;Roboto Condensed&quot;&gt;No&lt;/font&gt;" style="text;html=1;strokeColor=none;fillColor=none;align=center;verticalAlign=middle;whiteSpace=wrap;rounded=0;fontSize=16;" vertex="1" parent="1">
          <mxGeometry x="230" y="833" width="24" height="30" as="geometry" />
        </mxCell>
      </root>
    </mxGraphModel>
  </diagram>
</mxfile>
